<svg xmlns="http://www.w3.org/2000/svg" width="67.499" height="67.5" viewBox="0 0 67.499 67.5">
  <g id="Group_7657" data-name="Group 7657" transform="translate(-9977.485 -3740.739)">
    <path id="Path_12401" data-name="Path 12401" d="M2703.844,545.281h7.089v5.228h5.637v7.11h-5.637v5.228h-7.666v-5.228h-5.636v-7.11h6.213Z" transform="translate(7311.487 3228.896)" fill="#fff"/>
    <path id="Path_12402" data-name="Path 12402" d="M2618.287,471.5h-6.057l-8.425,7.59v-32.87c0-4.474,3.91-8.1,8.734-8.1h29.811c4.824,0,8.734,3.627,8.734,8.1v12.925" transform="translate(7374.93 3303.869)" fill="none" stroke="#fff" stroke-linecap="round" stroke-linejoin="round" stroke-width="2.5"/>
    <path id="Path_12403" data-name="Path 12403" d="M2697.381,551.5l8.426,7.59v-32.87c0-4.474-3.91-8.1-8.734-8.1h-29.812c-4.824,0-8.734,3.627-8.734,8.1V543.4c0,4.475,3.91,8.1,8.734,8.1Z" transform="translate(7337.928 3247.898)" fill="none" stroke="#fff" stroke-linecap="round" stroke-linejoin="round" stroke-width="2.5"/>
    <line id="Line_5855" data-name="Line 5855" x2="19.7" transform="translate(9991.652 3752.836)" fill="none" stroke="#fff" stroke-linecap="round" stroke-linejoin="round" stroke-width="2.5"/>
    <line id="Line_5856" data-name="Line 5856" x2="19.7" transform="translate(9991.652 3759.427)" fill="none" stroke="#fff" stroke-linecap="round" stroke-linejoin="round" stroke-width="2.5"/>
  </g>
</svg>
