<svg xmlns="http://www.w3.org/2000/svg" width="68.019" height="67.502" viewBox="0 0 68.019 67.502">
  <g id="Camada_2" data-name="Camada 2" transform="translate(-0.29 -0.29)">
    <g id="Icon_Set" data-name="Icon Set" transform="translate(1.54 1.54)">
      <path id="Path_5416" data-name="Path 5416" d="M2.079.484,10.3,0,8.232,35.179a1.729,1.729,0,0,1-1.586,1.586l-5.234.308A1.3,1.3,0,0,1,0,35.663L2.073.484Z" transform="translate(38.783 42.95) rotate(-135)" fill="none" stroke="#fff" stroke-linecap="round" stroke-linejoin="round" stroke-width="2.5"/>
      <path id="Path_5417" data-name="Path 5417" d="M58.949,76.6l-2.22,1.979-5.686,2.066-1.4-1.24-1.4-1.246L50.57,73.1l2.22-1.973" transform="translate(-21.308 -35.459)" fill="none" stroke="#fff" stroke-linecap="round" stroke-linejoin="round" stroke-width="2.5"/>
      <line id="Line_63" data-name="Line 63" x1="2.941" y2="2.609" transform="translate(25.392 43.95)" fill="none" stroke="#fff" stroke-linecap="round" stroke-linejoin="round" stroke-width="2.5"/>
      <path id="Path_5418" data-name="Path 5418" d="M98.785,42.92l1.453,1.292a2.972,2.972,0,0,1,0,4.542L89.35,58.431" transform="translate(-38.709 -21.709)" fill="none" stroke="#fff" stroke-linecap="round" stroke-linejoin="round" stroke-width="2.5"/>
      <line id="Line_64" data-name="Line 64" x1="6.159" y1="5.48" transform="translate(48.542 20.509)" fill="none" stroke="#fff" stroke-linecap="round" stroke-linejoin="round" stroke-width="2.5"/>
      <path id="Path_5419" data-name="Path 5419" d="M48.978,1.54H33.73a1.143,1.143,0,0,0-1.2,1.071V8.439a2.41,2.41,0,0,0,2.538,2.25h.04a2.606,2.606,0,0,0,2.37-1.456,4.439,4.439,0,0,1,7.762,0,2.606,2.606,0,0,0,2.37,1.456h.04a2.408,2.408,0,0,0,2.526-2.25V2.611a1.144,1.144,0,0,0-1.2-1.071Z" transform="translate(-14.658 -1.54)" fill="none" stroke="#fff" stroke-linecap="round" stroke-miterlimit="10" stroke-width="2.5"/>
      <path id="Path_5420" data-name="Path 5420" d="M83.986,13.263V1.54H70.18" transform="translate(-30.595 -1.54)" fill="none" stroke="#fff" stroke-linecap="round" stroke-miterlimit="10" stroke-width="2.5"/>
      <path id="Path_5421" data-name="Path 5421" d="M15.352,1.54H1.54v65h42a3.323,3.323,0,0,0,3.5-3.111V59.524h4.395a3.323,3.323,0,0,0,3.5-3.111V40.01" transform="translate(-1.54 -1.54)" fill="none" stroke="#fff" stroke-linecap="round" stroke-miterlimit="10" stroke-width="2.5"/>
      <rect id="Rectangle_3472" data-name="Rectangle 3472" width="8.12" height="7.217" transform="translate(8.622 39.593)" fill="none" stroke="#fff" stroke-linecap="round" stroke-miterlimit="10" stroke-width="2.5"/>
      <rect id="Rectangle_3473" data-name="Rectangle 3473" width="8.12" height="7.217" transform="translate(8.622 26.921)" fill="none" stroke="#fff" stroke-linecap="round" stroke-miterlimit="10" stroke-width="2.5"/>
      <rect id="Rectangle_3474" data-name="Rectangle 3474" width="8.12" height="7.217" transform="translate(8.622 14.25)" fill="none" stroke="#fff" stroke-linecap="round" stroke-miterlimit="10" stroke-width="2.5"/>
      <path id="Path_5422" data-name="Path 5422" d="M46.088,118.49v-3.87H7.72v3.87Z" transform="translate(-4.156 -56.656)" fill="#fff"/>
    </g>
  </g>
</svg>
