<svg xmlns="http://www.w3.org/2000/svg" width="67.5" height="67.596" viewBox="0 0 67.5 67.596">
  <g id="Group_7654" data-name="Group 7654" transform="translate(-8922.761 -3566.641)">
    <path id="Path_3231" data-name="Path 3231" d="M316.3,834.12h0a2.492,2.492,0,0,0-2.923-.806l-15.459,5.772a1.57,1.57,0,0,0-1.032,2.283h0a2.493,2.493,0,0,0,2.923.806l1-.373,7.3,9.051-2.2,4.465,9.319-3.48,9.319-3.479-5.834-1.463-4.437-10.12,1-.373A1.57,1.57,0,0,0,316.3,834.12Z" transform="translate(8641.028 2734.841)" fill="none" stroke="#fff" stroke-linecap="round" stroke-linejoin="round" stroke-width="2.5"/>
    <line id="Line_1428" data-name="Line 1428" y1="2.514" x2="6.732" transform="translate(8941.839 3574.129)" fill="none" stroke="#fff" stroke-linecap="round" stroke-linejoin="round" stroke-width="2.5"/>
    <line id="Line_1429" data-name="Line 1429" y1="1.99" x2="5.415" transform="translate(8954.391 3581.711)" fill="none" stroke="#fff" stroke-linecap="round" stroke-linejoin="round" stroke-width="2.5"/>
    <path id="Path_3232" data-name="Path 3232" d="M325.356,876.981l8.962,8.541-2.887-10.809" transform="translate(8627.861 2710.831)" fill="none" stroke="#fff" stroke-linecap="round" stroke-linejoin="round" stroke-width="2.5"/>
    <path id="Path_3233" data-name="Path 3233" d="M378.953,916.778v26.058H364.137" transform="translate(8610.058 2686.533)" fill="none" stroke="#fff" stroke-linecap="round" stroke-linejoin="round" stroke-width="2.5"/>
    <path id="Path_3234" data-name="Path 3234" d="M372.836,883.618h10.111v1.854" transform="translate(8606.064 2705.687)" fill="none" stroke="#fff" stroke-linecap="round" stroke-linejoin="round" stroke-width="2.5"/>
    <path id="Path_3235" data-name="Path 3235" d="M317.851,970.856H296.675v-5.569" transform="translate(8641.029 2658.513)" fill="none" stroke="#fff" stroke-linecap="round" stroke-linejoin="round" stroke-width="2.5"/>
    <path id="Path_3236" data-name="Path 3236" d="M310.917,872.347l25.444,7.31-16.376,37.969-48.624-12.788,16.376-37.969,2.908.834" transform="translate(8652.65 2715.362)" fill="none" stroke="#fff" stroke-linecap="round" stroke-linejoin="round" stroke-width="2.5"/>
    <line id="Line_1430" data-name="Line 1430" x2="19.537" y2="5.138" transform="translate(8945.911 3605.887)" fill="none" stroke="#fff" stroke-linecap="round" stroke-linejoin="round" stroke-width="2.5"/>
    <line id="Line_1431" data-name="Line 1431" x2="19.537" y2="5.138" transform="translate(8943.023 3612.008)" fill="none" stroke="#fff" stroke-linecap="round" stroke-linejoin="round" stroke-width="2.5"/>
    <path id="Path_3237" data-name="Path 3237" d="M342.7,894.029c1.441,2.223.3,4.937-2.545,6.062s-6.323.235-7.764-1.988" transform="translate(8624.631 2699.673)" fill="none" stroke="#fff" stroke-linecap="round" stroke-linejoin="round" stroke-width="2.5"/>
    <path id="Path_3238" data-name="Path 3238" d="M348.321,953.524l-20.852,6.595,16.173,4.254Z" transform="translate(8626.892 2665.308)" fill="#fff"/>
  </g>
</svg>
