<svg xmlns="http://www.w3.org/2000/svg" width="67.5" height="67.5" viewBox="0 0 67.5 67.5">
  <g id="Group_7668" data-name="Group 7668" transform="translate(-10040.621 -3742.125)">
    <path id="Path_6455" data-name="Path 6455" d="M1032.3,1228.791a31.758,31.758,0,0,1,16.556,0v28.183H1032.3Z" transform="translate(9014.361 2534.256)" fill="none" stroke="#fff" stroke-linecap="round" stroke-miterlimit="10" stroke-width="2.5"/>
    <path id="Path_6456" data-name="Path 6456" d="M1041.974,1233.694a25.268,25.268,0,0,0-3.67.265v8.429h7.338v-8.429A25.232,25.232,0,0,0,1041.974,1233.694Z" transform="translate(9012.971 2531.329)" fill="#fff"/>
    <path id="Path_6457" data-name="Path 6457" d="M1046.148,1220.561v-7.527a16.845,16.845,0,0,0-8.784,0v7.527A32.21,32.21,0,0,1,1046.148,1220.561Z" transform="translate(9013.188 2541.691)" fill="none" stroke="#fff" stroke-linecap="round" stroke-miterlimit="10" stroke-width="2.5"/>
    <line id="Line_2808" data-name="Line 2808" y1="10.769" transform="translate(10054.944 3743.375)" fill="none" stroke="#fff" stroke-linecap="round" stroke-miterlimit="10" stroke-width="2.5"/>
    <path id="Path_6458" data-name="Path 6458" d="M1028.821,1284.862h20.629c1.524,0,2.759.823,2.759,1.84h0c0,1.016-1.235,1.84-2.759,1.84h-20.629c-1.524,0-2.759-.823-2.759-1.84h0C1026.062,1285.686,1027.3,1284.862,1028.821,1284.862Z" transform="translate(9015.809 2506.368)" fill="none" stroke="#fff" stroke-linecap="round" stroke-miterlimit="10" stroke-width="2.5"/>
    <path id="Path_6459" data-name="Path 6459" d="M1036,1311.154h9.605c1.523,0,2.758.823,2.758,1.839h0c0,1.016-1.234,1.84-2.759,1.84H1036c-1.524,0-2.759-.824-2.759-1.84h0C1033.238,1311.978,1034.473,1311.154,1036,1311.154Z" transform="translate(9014.146 2493.542)" fill="none" stroke="#fff" stroke-linecap="round" stroke-miterlimit="10" stroke-width="2.5"/>
    <rect id="Rectangle_484" data-name="Rectangle 484" width="8.24" height="9.787" transform="translate(10059.064 3804.696) rotate(180)" fill="none" stroke="#fff" stroke-linecap="round" stroke-miterlimit="10" stroke-width="2.5"/>
    <line id="Line_2809" data-name="Line 2809" x1="5.127" transform="translate(10058.095 3786.949)" fill="none" stroke="#fff" stroke-linecap="round" stroke-miterlimit="10" stroke-width="2.5"/>
    <line id="Line_2810" data-name="Line 2810" x1="5.127" transform="translate(10058.095 3782.615)" fill="none" stroke="#fff" stroke-linecap="round" stroke-miterlimit="10" stroke-width="2.5"/>
    <line id="Line_2811" data-name="Line 2811" x1="5.127" transform="translate(10058.095 3778.281)" fill="none" stroke="#fff" stroke-linecap="round" stroke-miterlimit="10" stroke-width="2.5"/>
    <path id="Path_6460" data-name="Path 6460" d="M1082.883,1237.791a31.758,31.758,0,0,1,16.556,0V1262.9h-16.556Z" transform="translate(9002.636 2529.865)" fill="none" stroke="#fff" stroke-linecap="round" stroke-miterlimit="10" stroke-width="2.5"/>
    <line id="Line_2812" data-name="Line 2812" y1="15.378" transform="translate(10093.798 3743.375)" fill="none" stroke="#fff" stroke-linecap="round" stroke-miterlimit="10" stroke-width="2.5"/>
    <path id="Path_6461" data-name="Path 6461" d="M1079.4,1291.542c-1.524,0-2.759-.824-2.759-1.84h0c0-1.016,1.235-1.84,2.759-1.84h20.629c1.524,0,2.759.823,2.759,1.84h0c0,1.016-1.235,1.84-2.759,1.84" transform="translate(9004.083 2504.904)" fill="none" stroke="#fff" stroke-linecap="round" stroke-miterlimit="10" stroke-width="2.5"/>
    <path id="Path_6462" data-name="Path 6462" d="M1086.575,1311.154h9.6c1.523,0,2.759.823,2.759,1.839h0c0,1.016-1.235,1.84-2.759,1.84h-9.6c-1.523,0-2.759-.824-2.759-1.84h0C1083.816,1311.978,1085.051,1311.154,1086.575,1311.154Z" transform="translate(9002.42 2493.542)" fill="none" stroke="#fff" stroke-linecap="round" stroke-miterlimit="10" stroke-width="2.5"/>
    <path id="Path_6463" data-name="Path 6463" d="M1088.3,1287.862v11.93h8.24v-11.93" transform="translate(9001.381 2504.904)" fill="none" stroke="#fff" stroke-linecap="round" stroke-miterlimit="10" stroke-width="2.5"/>
    <path id="Path_6464" data-name="Path 6464" d="M1090.347,1221.567c-1.384.162-2.4.955-2.4,1.892v6.1a32.22,32.22,0,0,1,8.784,0v-6.1c0-.937-1.02-1.729-2.4-1.892A17.134,17.134,0,0,0,1090.347,1221.567Z" transform="translate(9001.463 2537.301)" fill="none" stroke="#fff" stroke-linecap="round" stroke-miterlimit="10" stroke-width="2.5"/>
    <path id="Path_6465" data-name="Path 6465" d="M1096.221,1255.785v-12.825a25.492,25.492,0,0,0-7.338,0v14A24.169,24.169,0,0,1,1096.221,1255.785Z" transform="translate(9001.245 2526.938)" fill="#fff"/>
  </g>
</svg>
